<svg width="33" height="22" viewBox="0 0 33 22" fill="none" xmlns="http://www.w3.org/2000/svg">
<path d="M7.33333 5.5166H25.6667V16.0166H7.33333V5.5166ZM30.25 10.7666C30.25 12.2164 31.4812 13.3916 33 13.3916V18.6416C33 20.0914 31.7688 21.2666 30.25 21.2666H2.75C1.2312 21.2666 0 20.0914 0 18.6416V13.3916C1.5188 13.3916 2.75 12.2164 2.75 10.7666C2.75 9.31684 1.5188 8.1416 0 8.1416V2.8916C0 1.44184 1.2312 0.266602 2.75 0.266602H30.25C31.7688 0.266602 33 1.44184 33 2.8916V8.1416C31.4812 8.1416 30.25 9.31684 30.25 10.7666ZM27.5 5.0791C27.5 4.35422 26.8844 3.7666 26.125 3.7666H6.875C6.1156 3.7666 5.5 4.35422 5.5 5.0791V16.4541C5.5 17.179 6.1156 17.7666 6.875 17.7666H26.125C26.8844 17.7666 27.5 17.179 27.5 16.4541V5.0791Z" fill="black"/>
</svg>
