<svg width="28" height="32" viewBox="0 0 28 32" fill="none" xmlns="http://www.w3.org/2000/svg">
<path d="M14 0.266602C6.265 0.266602 0 3.34938 0 7.15549C0 10.9616 6.265 14.0444 14 14.0444C21.735 14.0444 28 10.9616 28 7.15549C28 3.34938 21.735 0.266602 14 0.266602ZM0 10.5999V15.7666C0 19.5727 6.265 22.6555 14 22.6555C21.735 22.6555 28 19.5727 28 15.7666V10.5999C28 14.406 21.735 17.4888 14 17.4888C6.265 17.4888 0 14.406 0 10.5999ZM0 19.211V24.3777C0 28.1838 6.265 31.2666 14 31.2666C21.735 31.2666 28 28.1838 28 24.3777V19.211C28 23.0172 21.735 26.0999 14 26.0999C6.265 26.0999 0 23.0172 0 19.211Z" fill="black"/>
</svg>
