<svg width="74" height="33" viewBox="0 0 74 33" fill="none" xmlns="http://www.w3.org/2000/svg">
<rect width="73.4322" height="32.4834" fill="#C4C4C4"/>
<path d="M51.3237 6.70855C51.3237 5.86576 51.5837 5.0575 52.0464 4.46156C52.5092 3.86562 53.1368 3.53082 53.7912 3.53082H68.5961C69.2505 3.53082 69.8781 3.86562 70.3409 4.46156C70.8036 5.0575 71.0636 5.86576 71.0636 6.70855V25.7749C71.0636 26.6177 70.8036 27.4259 70.3409 28.0219C69.8781 28.6178 69.2505 28.9526 68.5961 28.9526H53.7912C53.1368 28.9526 52.5092 28.6178 52.0464 28.0219C51.5837 27.4259 51.3237 26.6177 51.3237 25.7749V6.70855ZM56.2587 13.064C56.1398 13.064 56.0234 13.1082 55.9235 13.1913C55.8237 13.2745 55.7446 13.393 55.6959 13.5327C55.6471 13.6724 55.6308 13.8272 55.6488 13.9786C55.6667 14.13 55.7183 14.2714 55.7973 14.3859L60.7322 21.5358C60.7901 21.6198 60.8612 21.6871 60.9407 21.7331C61.0202 21.7792 61.1064 21.803 61.1936 21.803C61.2809 21.803 61.3671 21.7792 61.4466 21.7331C61.5261 21.6871 61.5972 21.6198 61.6551 21.5358L66.59 14.3859C66.669 14.2714 66.7206 14.13 66.7385 13.9786C66.7565 13.8272 66.7402 13.6724 66.6914 13.5327C66.6427 13.393 66.5636 13.2745 66.4638 13.1913C66.3639 13.1082 66.2475 13.064 66.1286 13.064H56.2587Z" fill="black" fill-opacity="0.66"/>
</svg>
