<svg width="32" height="35" viewBox="0 0 32 35" fill="none" xmlns="http://www.w3.org/2000/svg">
<path d="M30.3611 11.7243L21.6227 10.2676L17.7177 1.21748C17.3666 0.408789 16.6819 0 15.9971 0C15.3165 0 14.6365 0.40332 14.2843 1.21748L10.3781 10.2669L1.63905 11.7223C0.0719068 11.982 -0.556146 14.1894 0.579961 15.454L6.90168 22.495L5.40558 32.4399C5.19304 33.8604 6.18348 35 7.29272 35C7.58704 35 7.88973 34.92 8.18047 34.7437L15.9983 30.0487L23.8155 34.745C24.1057 34.9193 24.4077 34.9986 24.7009 34.9986C25.8113 34.9986 26.8035 33.8632 26.591 32.442L25.0967 22.4964L31.4196 15.4567C32.5563 14.1921 31.9283 11.9841 30.3611 11.7243ZM23.0931 20.1462L22.0114 21.3507L22.2669 23.0515L23.4322 30.8068L17.335 27.1435L15.9989 26.3409L16.0007 4.65801L19.0472 11.7188L19.7147 13.2658L21.2078 13.5146L28.0274 14.6515L23.0931 20.1462Z" fill="#EDF5E1"/>
</svg>
