<svg width="35" height="40" viewBox="0 0 35 40" fill="none" xmlns="http://www.w3.org/2000/svg">
<path d="M25.5098 25.858C27.5435 22.5544 28.4544 18.4585 28.0602 14.3897C27.666 10.321 25.9959 6.57939 23.3839 3.9136C20.7719 1.2478 17.4106 -0.145638 13.9726 0.0120615C10.5347 0.169761 7.27348 1.86697 4.84152 4.76413C2.40957 7.66129 0.986206 11.5448 0.856195 15.6376C0.726183 19.7304 1.89911 23.7307 4.14032 26.8382C6.38153 29.9458 9.52574 31.9313 12.9439 32.3977C16.3621 32.864 19.8021 31.7767 22.5758 29.3534H22.5737C22.6367 29.4534 22.7039 29.5484 22.7795 29.6409L30.8656 39.2669C31.2594 39.7361 31.7936 39.9998 32.3508 40C32.9079 40.0002 33.4423 39.737 33.8364 39.2682C34.2305 38.7994 34.452 38.1634 34.4522 37.5001C34.4524 36.8369 34.2313 36.2007 33.8375 35.7316L25.7514 26.1056C25.6763 26.0151 25.5955 25.9315 25.5098 25.8555V25.858ZM26.0517 16.247C26.0517 18.0529 25.7529 19.8411 25.1724 21.5095C24.5919 23.1779 23.741 24.6938 22.6683 25.9708C21.5957 27.2477 20.3223 28.2606 18.9208 28.9517C17.5193 29.6428 16.0171 29.9985 14.5002 29.9985C12.9832 29.9985 11.4811 29.6428 10.0796 28.9517C8.67807 28.2606 7.40464 27.2477 6.33198 25.9708C5.25932 24.6938 4.40843 23.1779 3.82791 21.5095C3.24739 19.8411 2.9486 18.0529 2.9486 16.247C2.9486 12.5999 4.16564 9.10221 6.33198 6.52332C8.49832 3.94443 11.4365 2.49563 14.5002 2.49563C17.5638 2.49563 20.502 3.94443 22.6683 6.52332C24.8347 9.10221 26.0517 12.5999 26.0517 16.247Z" fill="black" fill-opacity="0.89"/>
</svg>
